<svg xmlns="http://www.w3.org/2000/svg" version="1.1" xmlns:xlink="http://www.w3.org/1999/xlink" xmlns:svgjs="http://svgjs.com/svgjs" width="1440" height="560" preserveAspectRatio="none" viewBox="0 0 1440 560">
	<g mask="url(&quot;#SvgjsMask1009&quot;)" fill="none">
		<rect width="1440" height="560" x="0" y="0" fill="rgba(0, 22, 40, 1)">
		</rect>
		<path d="M715 544L714 703" stroke-width="8" stroke="url(#SvgjsLinearGradient1010)" stroke-linecap="round" class="Up">
		</path>
		<path d="M162 94L161 494" stroke-width="8" stroke="url(#SvgjsLinearGradient1010)" stroke-linecap="round" class="Up">
		</path>
		<path d="M61 26L60 -268" stroke-width="8" stroke="url(#SvgjsLinearGradient1011)" stroke-linecap="round" class="Down">
		</path>
		<path d="M462 443L461 702" stroke-width="6" stroke="url(#SvgjsLinearGradient1010)" stroke-linecap="round" class="Up">
		</path>
		<path d="M439 423L438 6" stroke-width="10" stroke="url(#SvgjsLinearGradient1011)" stroke-linecap="round" class="Down">
		</path>
		<path d="M783 22L782 -325" stroke-width="6" stroke="url(#SvgjsLinearGradient1010)" stroke-linecap="round" class="Up">
		</path>
		<path d="M488 36L487 -333" stroke-width="6" stroke="url(#SvgjsLinearGradient1011)" stroke-linecap="round" class="Down">
		</path>
		<path d="M1364 103L1363 -119" stroke-width="10" stroke="url(#SvgjsLinearGradient1010)" stroke-linecap="round" class="Up">
		</path>
		<path d="M1271 298L1270 116" stroke-width="6" stroke="url(#SvgjsLinearGradient1011)" stroke-linecap="round" class="Down">
		</path>
		<path d="M916 24L915 -167" stroke-width="10" stroke="url(#SvgjsLinearGradient1010)" stroke-linecap="round" class="Up">
		</path>
		<path d="M342 431L341 759" stroke-width="8" stroke="url(#SvgjsLinearGradient1011)" stroke-linecap="round" class="Down">
		</path>
		<path d="M1222 64L1221 326" stroke-width="8" stroke="url(#SvgjsLinearGradient1011)" stroke-linecap="round" class="Down">
		</path>
		<path d="M344 72L343 -246" stroke-width="6" stroke="url(#SvgjsLinearGradient1010)" stroke-linecap="round" class="Up">
		</path>
		<path d="M461 292L460 554" stroke-width="8" stroke="url(#SvgjsLinearGradient1010)" stroke-linecap="round" class="Up">
		</path>
		<path d="M1297 424L1296 179" stroke-width="6" stroke="url(#SvgjsLinearGradient1010)" stroke-linecap="round" class="Up">
		</path>
		<path d="M148 149L147 323" stroke-width="10" stroke="url(#SvgjsLinearGradient1011)" stroke-linecap="round" class="Down">
		</path>
		<path d="M730 475L729 235" stroke-width="8" stroke="url(#SvgjsLinearGradient1010)" stroke-linecap="round" class="Up">
		</path>
		<path d="M965 88L964 505" stroke-width="10" stroke="url(#SvgjsLinearGradient1011)" stroke-linecap="round" class="Down">
		</path>
		<path d="M214 227L213 -43" stroke-width="6" stroke="url(#SvgjsLinearGradient1010)" stroke-linecap="round" class="Up">
		</path>
		<path d="M1211 471L1210 695" stroke-width="8" stroke="url(#SvgjsLinearGradient1010)" stroke-linecap="round" class="Up">
		</path>
		<path d="M44 260L43 -36" stroke-width="10" stroke="url(#SvgjsLinearGradient1010)" stroke-linecap="round" class="Up">
		</path>
		<path d="M19 267L18 498" stroke-width="6" stroke="url(#SvgjsLinearGradient1010)" stroke-linecap="round" class="Up">
		</path>
		<path d="M83 206L82 363" stroke-width="6" stroke="url(#SvgjsLinearGradient1010)" stroke-linecap="round" class="Up">
		</path>
		<path d="M1377 360L1376 618" stroke-width="6" stroke="url(#SvgjsLinearGradient1011)" stroke-linecap="round" class="Down">
		</path>
		<path d="M102 477L101 319" stroke-width="10" stroke="url(#SvgjsLinearGradient1011)" stroke-linecap="round" class="Down">
		</path>
		<path d="M243 247L242 -133" stroke-width="6" stroke="url(#SvgjsLinearGradient1011)" stroke-linecap="round" class="Down">
		</path>
		<path d="M1303 403L1302 644" stroke-width="6" stroke="url(#SvgjsLinearGradient1010)" stroke-linecap="round" class="Up">
		</path>
		<path d="M631 480L630 220" stroke-width="6" stroke="url(#SvgjsLinearGradient1011)" stroke-linecap="round" class="Down">
		</path>
		<path d="M684 439L683 251" stroke-width="10" stroke="url(#SvgjsLinearGradient1010)" stroke-linecap="round" class="Up">
		</path>
		<path d="M1354 366L1353 639" stroke-width="10" stroke="url(#SvgjsLinearGradient1010)" stroke-linecap="round" class="Up">
		</path>
		<path d="M553 91L552 -160" stroke-width="10" stroke="url(#SvgjsLinearGradient1010)" stroke-linecap="round" class="Up">
		</path>
		<path d="M1229 194L1228 40" stroke-width="10" stroke="url(#SvgjsLinearGradient1011)" stroke-linecap="round" class="Down">
		</path>
		<path d="M383 181L382 -60" stroke-width="8" stroke="url(#SvgjsLinearGradient1010)" stroke-linecap="round" class="Up">
		</path>
		<path d="M592 77L591 -148" stroke-width="6" stroke="url(#SvgjsLinearGradient1011)" stroke-linecap="round" class="Down">
		</path>
		<path d="M1130 159L1129 -51" stroke-width="10" stroke="url(#SvgjsLinearGradient1011)" stroke-linecap="round" class="Down">
		</path>
		<path d="M1087 261L1086 468" stroke-width="8" stroke="url(#SvgjsLinearGradient1010)" stroke-linecap="round" class="Up">
		</path>
	</g>
	<defs>
		<mask id="SvgjsMask1009">
			<rect width="1440" height="560" fill="#ffffff">
			</rect>
		</mask>
		<linearGradient x1="0%" y1="100%" x2="0%" y2="0%" id="SvgjsLinearGradient1010">
			<stop stop-color="rgba(7, 121, 121, 0)" offset="0">
			</stop>
			<stop stop-color="rgba(7, 121, 121, 0.37)" offset="1">
			</stop>
		</linearGradient>
		<linearGradient x1="0%" y1="0%" x2="0%" y2="100%" id="SvgjsLinearGradient1011">
			<stop stop-color="rgba(7, 121, 121, 0)" offset="0">
			</stop>
			<stop stop-color="rgba(7, 121, 121, 0.37)" offset="1">
			</stop>
		</linearGradient>
	</defs>
</svg>
